<svg xmlns="http://www.w3.org/2000/svg" width="24" height="28" viewBox="0 0 24 28"><title>  at</title><path d="M15.2 12.1c0-2.2-1.2-3.6-3.1-3.6-2.6 0-5.4 2.6-5.4 6.8 0 2.3 1.2 3.7 3.2 3.7 3.1 0 5.3-3.6 5.3-6.8zM24 14c0 4.9-3.5 6.7-6.4 6.8-0.2 0-0.3 0-0.5 0-1 0-1.7-0.3-2.2-0.8-0.3-0.3-0.5-0.8-0.5-1.3-1 1.2-2.7 2.4-4.8 2.4-3.4 0-5.3-2.1-5.3-5.7 0-5 3.5-9 7.7-9 1.8 0 3.3 0.8 4.1 2.1l0-0.3 0.2-0.9c0-0.1 0.1-0.3 0.2-0.3h1.8c0.1 0 0.2 0.1 0.2 0.2 0 0 0.1 0.2 0 0.3l-1.9 9.6c-0.1 0.3-0.1 0.5-0.1 0.8 0 0.8 0.3 1 0.9 1 1.1 0 4.5-0.5 4.5-4.8 0-6.1-3.9-10-10-10-5.5 0-10 4.5-10 10s4.5 10 10 10c2.3 0 4.5-0.8 6.3-2.2 0.2-0.2 0.5-0.2 0.7 0.1l0.6 0.8c0.1 0.1 0.1 0.2 0.1 0.4 0 0.1-0.1 0.3-0.2 0.3-2.1 1.7-4.8 2.7-7.6 2.7-6.6 0-12-5.4-12-12s5.4-12 12-12c7.2 0 12 4.8 12 12z"/></svg>
