<svg xmlns="http://www.w3.org/2000/svg" width="26" height="28" viewBox="0 0 26 28"><title>  home</title><path d="M22 15.5v7.5c0 0.5-0.5 1-1 1h-6v-6h-4v6h-6c-0.5 0-1-0.5-1-1v-7.5c0 0 0-0.1 0-0.1l9-7.4 9 7.4c0 0 0 0.1 0 0.1zM25.5 14.4l-1 1.2c-0.1 0.1-0.2 0.2-0.3 0.2h0c-0.1 0-0.2 0-0.3-0.1l-10.8-9-10.8 9c-0.1 0.1-0.2 0.1-0.4 0.1-0.1 0-0.2-0.1-0.3-0.2l-1-1.2c-0.2-0.2-0.1-0.5 0.1-0.7l11.2-9.4c0.7-0.5 1.7-0.5 2.4 0l3.8 3.2v-3c0-0.3 0.2-0.5 0.5-0.5h3c0.3 0 0.5 0.2 0.5 0.5v6.4l3.4 2.8c0.2 0.2 0.2 0.5 0.1 0.7z"/></svg>